<svg class="logo-svg" version="1.0" xmlns="http://www.w3.org/2000/svg" width="25px" height="25px"
            viewBox="0 0 201.000000 200.000000"
            preserveAspectRatio="xMidYMid meet">
            <g transform="translate(0.000000,200.000000) scale(0.100000,-0.100000)" stroke="none">
            <path d="M845 1904 c-209 -113 -438 -175 -707 -190 l-118 -7 0 -86 c0 -96 20
            -260 44 -366 105 -459 392 -859 799 -1113 l68 -43 55 32 c267 152 525 432 676
            732 112 225 187 545 188 805 l0 42 -52 0 c-251 0 -527 66 -754 181 -64 32
            -117 58 -118 58 -1 -1 -37 -21 -81 -45z m177 -145 c161 -81 412 -150 608 -167
            l85 -7 -3 -60 c-14 -275 -130 -591 -309 -843 -94 -133 -340 -364 -445 -418
            -27 -14 -31 -13 -91 27 -398 268 -673 736 -713 1215 l-7 81 92 6 c189 14 421
            77 596 162 50 24 93 44 98 44 4 1 44 -17 89 -40z"/>
            <path d="M865 1596 c-34 -34 -41 -71 -21 -112 9 -19 23 -37 32 -41 8 -3 20
            -16 25 -29 11 -30 49 -32 56 -4 3 11 9 20 13 20 4 0 19 12 34 26 35 36 36 91
            0 133 -22 26 -33 31 -70 31 -34 0 -51 -6 -69 -24z m113 -29 c16 -13 15 -72 -2
            -86 -10 -8 -16 -9 -21 -1 -9 14 -45 13 -45 -2 0 -7 -10 -3 -22 10 -18 18 -20
            26 -12 49 16 46 63 60 102 30z"/>
            <path d="M816 1352 c-50 -1 -96 -8 -103 -14 -24 -19 -11 -52 22 -59 40 -9 321
            -11 379 -3 43 6 46 9 46 36 0 16 -6 30 -12 32 -20 7 -235 12 -332 8z"/>
            <path d="M904 1219 c-3 -6 -10 -112 -15 -236 -9 -251 -15 -273 -70 -273 -40 0
            -89 22 -118 54 -23 25 -23 26 -4 26 35 0 32 10 -18 60 -26 26 -51 60 -55 74
            -8 35 -20 33 -33 -5 -14 -41 -14 -117 0 -158 12 -34 24 -40 33 -15 5 13 12 8
            35 -23 38 -53 79 -86 162 -129 38 -20 79 -50 90 -65 l20 -29 26 31 c14 16 53
            44 87 61 79 39 125 77 161 128 23 33 30 38 37 26 16 -28 26 -17 39 39 10 44
            10 66 0 110 -7 30 -16 55 -20 55 -4 0 -15 -16 -24 -35 -9 -18 -34 -51 -57 -72
            -45 -43 -49 -53 -20 -53 30 0 24 -16 -15 -46 -49 -37 -113 -44 -140 -14 -17
            19 -20 44 -28 248 -4 125 -10 233 -12 240 -5 15 -51 16 -61 1z"/>
            </g>
    
        </svg>